<?xml version="1.0" encoding="UTF-8"?>
<svg width="32px" height="26px" viewBox="0 0 32 26" version="1.1" xmlns="http://www.w3.org/2000/svg" xmlns:xlink="http://www.w3.org/1999/xlink">
    <!-- Generator: Sketch 55 (78076) - https://sketchapp.com -->
    <title>church</title>
    <desc>Created with Sketch.</desc>
    <g id="MOC" stroke="none" stroke-width="1" fill="none" fill-rule="evenodd">
        <g id="Artboard" transform="translate(0.000000, -1.000000)" fill="#000000" fill-rule="nonzero">
            <path d="M23.223,13.334 L17.6,9.96 L17.6,7.4 L20,7.4 C20.442,7.4 20.8,7.042 20.8,6.6 L20.8,5 C20.8,4.558 20.442,4.2 20,4.2 L17.6,4.2 L17.6,1.8 C17.6,1.358 17.242,1 16.8,1 L15.2,1 C14.758,1 14.4,1.358 14.4,1.8 L14.4,4.2 L12,4.2 C11.558,4.2 11.2,4.558 11.2,5 L11.2,6.6 C11.2,7.042 11.558,7.4 12,7.4 L14.4,7.4 L14.4,9.96 L8.777,13.334 C8.29497163,13.6230899 8.0000069,14.1439285 8,14.706 L8,26.6 L12.8,26.6 L12.8,21.8 C12.8,20.0325 14.2325,18.6 16,18.6 C17.7675,18.6 19.2,20.0325 19.2,21.8 L19.2,26.6 L24,26.6 L24,14.706 C24,14.144 23.705,13.623 23.223,13.334 Z M0,20.798 L0,25.8 C0,26.242 0.358,26.6 0.8,26.6 L6.4,26.6 L6.4,17 L0.9695,19.327 C0.381384578,19.579502 0.000129818247,20.1579711 0,20.798 Z M31.0305,19.327 L25.6,17 L25.6,26.6 L31.2,26.6 C31.642,26.6 32,26.242 32,25.8 L32,20.798 C32,20.158 31.6185,19.5795 31.0305,19.327 Z" id="church"></path>
        </g>
    </g>
</svg>